0
SECTION
2
HEADER
9
$INSUNITS
70
4
9
$ACADVER
1
AC1014
9
$HANDSEED
5
FFFF
0
ENDSEC
0
SECTION
2
TABLES
0
TABLE
2
VPORT
5
8
100
AcDbSymbolTable
0
ENDTAB
0
TABLE
2
LTYPE
5
5
100
AcDbSymbolTable
0
LTYPE
5
14
100
AcDbSymbolTableRecord
100
AcDbLinetypeTableRecord
2
BYBLOCK
70
0
0
LTYPE
5
15
100
AcDbSymbolTableRecord
100
AcDbLinetypeTableRecord
2
BYLAYER
70
0
0
ENDTAB
0
TABLE
2
LAYER
5
2
100
AcDbSymbolTable
70
2
0
LAYER
5
50
100
AcDbSymbolTableRecord
100
AcDbLayerTableRecord
2
0
70
0
6
CONTINUOUS
0
ENDTAB
0
TABLE
2
STYLE
5
3
100
AcDbSymbolTable
70
1
0
STYLE
5
11
100
AcDbSymbolTableRecord
100
AcDbTextStyleTableRecord
2
STANDARD
70
0
0
ENDTAB
0
TABLE
2
VIEW
5
6
100
AcDbSymbolTable
70
0
0
ENDTAB
0
TABLE
2
UCS
5
7
100
AcDbSymbolTable
70
0
0
ENDTAB
0
TABLE
2
APPID
5
9
100
AcDbSymbolTable
70
2
0
APPID
5
12
100
AcDbSymbolTableRecord
100
AcDbRegAppTableRecord
2
ACAD
70
0
0
ENDTAB
0
TABLE
2
DIMSTYLE
5
A
100
AcDbSymbolTable
70
1
0
ENDTAB
0
TABLE
2
BLOCK_RECORD
5
1
100
AcDbSymbolTable
70
1
0
BLOCK_RECORD
5
1F
100
AcDbSymbolTableRecord
100
AcDbBlockTableRecord
2
*MODEL_SPACE
0
BLOCK_RECORD
5
1B
100
AcDbSymbolTableRecord
100
AcDbBlockTableRecord
2
*PAPER_SPACE
0
ENDTAB
0
ENDSEC
0
SECTION
2
BLOCKS
0
BLOCK
5
20
100
AcDbEntity
100
AcDbBlockBegin
2
*MODEL_SPACE
0
ENDBLK
5
21
100
AcDbEntity
100
AcDbBlockEnd
0
BLOCK
5
1C
100
AcDbEntity
100
AcDbBlockBegin
2
*PAPER_SPACE
0
ENDBLK
5
1D
100
AcDbEntity
100
AcDbBlockEnd
0
ENDSEC
0
SECTION
2
ENTITIES
0
LWPOLYLINE
5
100
100
AcDbEntity
8
0
100
AcDbPolyline
90
22
70
1
43
0.0
10
174.13625000000013
20
-93.691253691397122
42
0.41421356237310542
10
173.63625000000013
20
-93.191253691397108
10
166.19825000000017
20
-93.191253691397137
42
-0.41421356237309503
10
165.69825000000014
20
-92.691253691397137
10
165.69825000000014
20
-78.691253691397137
42
-0.4142135623730846
10
166.19825000000017
20
-78.191253691397137
10
176.96075000000013
20
-78.191253691397137
42
-0.41421356237312623
10
177.46075000000016
20
-78.691253691397122
10
177.46075000000016
20
-79.691253691397151
42
0.41421356237309503
10
177.96075000000016
20
-80.191253691397151
10
189.07425000000015
20
-80.191253691397137
42
0.41421356237312623
10
189.57425000000015
20
-79.691253691397151
10
189.57425000000015
20
-78.691253691397122
42
-0.41421356237307944
10
190.07425000000015
20
-78.191253691397137
10
200.80500000000015
20
-78.191253691397137
42
-0.41421356237312623
10
201.30500000000015
20
-78.691253691397122
10
201.30500000000018
20
-92.691253691397137
42
-0.4142135623730846
10
200.80500000000015
20
-93.191253691397137
10
193.39875000000012
20
-93.191253691397137
42
0.41421356237301177
10
192.89875000000018
20
-93.691253691397122
42
-0.41421356237313667
10
192.39875000000015
20
-94.191253691397137
10
174.63625000000013
20
-94.191253691397151
42
-0.41421356237310542
0
LWPOLYLINE
5
101
100
AcDbEntity
8
0
100
AcDbPolyline
90
22
70
1
43
0.0
10
88.41125000000018
20
-93.691253691397122
42
0.4142135623730534
10
87.911250000000166
20
-93.191253691397151
10
80.505000000000166
20
-93.191253691397151
42
-0.41421356237309503
10
80.005000000000166
20
-92.691253691397151
10
80.005000000000166
20
-78.691253691397151
42
-0.41421356237311585
10
80.505000000000166
20
-78.191253691397151
10
91.235750000000166
20
-78.191253691397137
42
-0.41421356237309503
10
91.735750000000166
20
-78.691253691397137
10
91.735750000000166
20
-79.691253691397165
42
0.414213562373069
10
92.235750000000166
20
-80.191253691397165
10
103.34925000000015
20
-80.191253691397151
42
0.41421356237307944
10
103.84925000000015
20
-79.691253691397165
10
103.84925000000017
20
-78.691253691397151
42
-0.41421356237310542
10
104.34925000000015
20
-78.191253691397151
10
115.11175000000017
20
-78.191253691397137
42
-0.41421356237307422
10
115.61175000000019
20
-78.691253691397137
10
115.61175000000019
20
-92.691253691397151
42
-0.41421356237307422
10
115.11175000000017
20
-93.191253691397151
10
107.67375000000017
20
-93.191253691397151
42
0.4142135623730534
10
107.17375000000017
20
-93.691253691397122
42
-0.41421356237307422
10
106.67375000000015
20
-94.191253691397137
10
88.911250000000166
20
-94.191253691397122
42
-0.41421356237313667
0
LWPOLYLINE
5
102
100
AcDbEntity
8
0
100
AcDbPolyline
90
40
70
1
43
0.0
10
152.20500000000018
20
-24.128253691397141
42
0.41421356237307422
10
152.70500000000015
20
-23.628253691397141
10
152.70500000000015
20
-23.541253691397131
42
-0.41421356237309243
10
153.20500000000015
20
-23.041253691397152
10
166.20500000000015
20
-23.041253691397124
42
-0.41421356237310025
10
166.70500000000015
20
-23.541253691397142
10
166.70500000000015
20
-36.541253691397138
42
-0.41421356237304818
10
166.20500000000015
20
-37.041253691397131
10
164.82375000000013
20
-37.041253691397131
42
0.41421356237304563
10
164.3237500000001
20
-37.541253691397131
10
164.32375000000013
20
-41.591253691397128
42
0.41421356237307944
10
164.82375000000016
20
-42.091253691397114
10
166.20500000000015
20
-42.091253691397142
42
-0.41421356237312101
10
166.70500000000015
20
-42.591253691397128
10
166.70500000000018
20
-55.591253691397135
42
-0.41421356237312101
10
166.20500000000015
20
-56.091253691397142
10
153.20500000000015
20
-56.091253691397114
42
-0.41421356237310025
10
152.70500000000018
20
-55.591253691397135
10
152.70500000000021
20
-55.504253691397125
42
0.41421356237307944
10
152.20500000000018
20
-55.004253691397111
10
151.82375000000019
20
-55.004253691397132
42
-0.41421356237307944
10
151.32375000000016
20
-54.504253691397118
10
151.32375000000019
20
-48.504253691397125
42
-0.41421356237307944
10
151.82375000000016
20
-48.004253691397111
10
152.20500000000018
20
-48.004253691397111
42
0.41421356237307422
10
152.70500000000015
20
-47.504253691397125
10
152.70500000000021
20
-47.066253691397144
42
0.41421356237307944
10
152.20500000000018
20
-46.566253691397122
10
150.82375000000019
20
-46.566253691397151
42
-0.41421356237307944
10
150.32375000000019
20
-46.066253691397137
10
150.32375000000019
20
-33.066253691397151
42
-0.41421356237307422
10
150.82375000000019
20
-32.566253691397151
10
152.20500000000018
20
-32.566253691397151
42
0.41421356237307422
10
152.70500000000015
20
-32.066253691397151
10
152.70500000000021
20
-31.628253691397141
42
0.4142135623730846
10
152.20500000000018
20
-31.128253691397152
10
151.82375000000016
20
-31.128253691397155
42
-0.41421356237307422
10
151.32375000000016
20
-30.628253691397148
10
151.32375000000016
20
-24.628253691397152
42
-0.41421356237307422
10
151.82375000000016
20
-24.128253691397145
0
LWPOLYLINE
5
103
100
AcDbEntity
8
0
100
AcDbPolyline
90
8
70
1
43
0.0
10
147.6550000000002
20
-42.591253691397128
10
147.6550000000002
20
-55.591253691397135
42
-0.41421356237307422
10
147.15500000000017
20
-56.091253691397142
10
115.10500000000019
20
-56.091253691397156
42
-0.41421356237307944
10
114.60500000000016
20
-55.591253691397142
10
114.60500000000017
20
-42.591253691397135
42
-0.41421356237309503
10
115.10500000000016
20
-42.091253691397142
10
147.15500000000017
20
-42.091253691397121
42
-0.41421356237307422
0
LWPOLYLINE
5
104
100
AcDbEntity
8
0
100
AcDbPolyline
90
8
70
1
43
0.0
10
185.75500000000017
20
-23.541253691397142
10
185.75500000000017
20
-36.541253691397138
42
-0.41421356237304818
10
185.25500000000017
20
-37.041253691397131
10
172.25500000000014
20
-37.041253691397074
42
-0.41421356237311846
10
171.75500000000017
20
-36.541253691397138
10
171.75500000000011
20
-23.541253691397142
42
-0.41421356237307683
10
172.25500000000014
20
-23.041253691397145
10
185.25500000000017
20
-23.041253691397124
42
-0.41421356237310025
0
LWPOLYLINE
5
105
100
AcDbEntity
8
0
100
AcDbPolyline
90
8
70
1
43
0.0
10
242.90500000000014
20
-42.591253691397114
10
242.90500000000014
20
-55.591253691397135
42
-0.41421356237313145
10
242.40500000000014
20
-56.091253691397142
10
229.40500000000017
20
-56.091253691397128
42
-0.41421356237313145
10
228.90500000000017
20
-55.591253691397135
10
228.90500000000017
20
-42.591253691397128
42
-0.41421356237307944
10
229.40500000000017
20
-42.091253691397135
10
242.40500000000014
20
-42.091253691397114
42
-0.41421356237313667
0
LWPOLYLINE
5
106
100
AcDbEntity
8
0
100
AcDbPolyline
90
8
70
1
43
0.0
10
185.75500000000017
20
-61.641253691397125
10
185.75500000000019
20
-74.641253691397111
42
-0.41421356237312623
10
185.25500000000017
20
-75.141253691397125
10
172.25500000000014
20
-75.141253691397068
42
-0.41421356237312101
10
171.75500000000017
20
-74.641253691397111
10
171.75500000000014
20
-61.641253691397125
42
-0.41421356237313667
10
172.25500000000014
20
-61.141253691397125
10
185.25500000000017
20
-61.141253691397139
42
-0.41421356237312623
0
LWPOLYLINE
5
107
100
AcDbEntity
8
0
100
AcDbPolyline
90
8
70
1
43
0.0
10
109.55500000000015
20
-42.591253691397135
10
109.55500000000015
20
-55.591253691397142
42
-0.41421356237307944
10
109.05500000000016
20
-56.091253691397149
10
96.055000000000149
20
-56.091253691397156
42
-0.41421356237307422
10
95.555000000000149
20
-55.591253691397149
10
95.555000000000163
20
-42.591253691397135
42
-0.41421356237309503
10
96.055000000000149
20
-42.091253691397142
10
109.05500000000016
20
-42.091253691397142
42
-0.41421356237309503
0
LWPOLYLINE
5
108
100
AcDbEntity
8
0
100
AcDbPolyline
90
8
70
1
43
0.0
10
90.505000000000166
20
-23.541253691397152
10
90.505000000000166
20
-36.541253691397145
42
-0.41421356237310542
10
90.005000000000166
20
-37.041253691397145
10
77.00500000000018
20
-37.041253691397159
42
-0.41421356237310281
10
76.505000000000166
20
-36.541253691397152
10
76.505000000000194
20
-23.541253691397159
42
-0.41421356237309764
10
77.00500000000018
20
-23.041253691397159
10
90.005000000000166
20
-23.041253691397149
42
-0.41421356237309243
0
LWPOLYLINE
5
109
100
AcDbEntity
8
0
100
AcDbPolyline
90
8
70
1
43
0.0
10
52.405000000000172
20
-61.641253691397146
10
52.405000000000172
20
-74.641253691397139
42
-0.41421356237311585
10
51.905000000000157
20
-75.141253691397139
10
38.90500000000015
20
-75.141253691397125
42
-0.41421356237308204
10
38.405000000000157
20
-74.641253691397139
10
38.405000000000143
20
-61.641253691397146
42
-0.41421356237310281
10
38.90500000000015
20
-61.141253691397139
10
51.905000000000157
20
-61.141253691397139
42
-0.41421356237311585
0
LWPOLYLINE
5
110
100
AcDbEntity
8
0
100
AcDbPolyline
90
8
70
1
43
0.0
10
33.355000000000153
20
-42.591253691397142
10
33.35500000000016
20
-55.591253691397142
42
-0.41421356237309764
10
32.855000000000146
20
-56.091253691397156
10
19.855000000000139
20
-56.091253691397121
42
-0.41421356237309631
10
19.355000000000167
20
-55.591253691397149
10
19.35500000000015
20
-42.591253691397142
42
-0.41421356237309503
10
19.855000000000139
20
-42.091253691397156
10
32.855000000000146
20
-42.091253691397142
42
-0.41421356237309764
0
LWPOLYLINE
5
111
100
AcDbEntity
8
0
100
AcDbPolyline
90
8
70
1
43
0.0
10
161.94250000000014
20
-80.691253691397137
10
161.94250000000017
20
-93.691253691397122
42
-0.41421356237313667
10
161.44250000000017
20
-94.191253691397137
10
119.86750000000016
20
-94.191253691397137
42
-0.41421356237307422
10
119.36750000000016
20
-93.691253691397122
10
119.36750000000016
20
-80.691253691397151
42
-0.41421356237307422
10
119.86750000000016
20
-80.191253691397151
10
161.44250000000017
20
-80.191253691397208
42
-0.41421356237311585
0
LWPOLYLINE
5
112
100
AcDbEntity
8
0
100
AcDbPolyline
90
8
70
1
43
0.0
10
261.95500000000015
20
-42.591253691397114
10
261.95500000000015
20
-55.591253691397128
42
-0.41421356237313667
10
261.45500000000015
20
-56.091253691397128
10
248.45500000000018
20
-56.091253691397128
42
-0.41421356237313667
10
247.95500000000018
20
-55.591253691397128
10
247.95500000000018
20
-42.591253691397114
42
-0.41421356237307944
10
248.45500000000018
20
-42.091253691397128
10
261.45500000000015
20
-42.091253691397114
42
-0.41421356237313667
0
LWPOLYLINE
5
113
100
AcDbEntity
8
0
100
AcDbPolyline
90
8
70
1
43
0.0
10
261.95500000000015
20
-61.641253691397118
10
261.95500000000015
20
-74.641253691397111
42
-0.41421356237313145
10
261.45500000000015
20
-75.141253691397111
10
248.45500000000018
20
-75.141253691397111
42
-0.41421356237313145
10
247.95500000000018
20
-74.641253691397111
10
247.95500000000018
20
-61.641253691397118
42
-0.41421356237313145
10
248.45500000000018
20
-61.141253691397111
10
261.45500000000015
20
-61.141253691397125
42
-0.41421356237313145
0
LWPOLYLINE
5
114
100
AcDbEntity
8
0
100
AcDbPolyline
90
8
70
1
43
0.0
10
33.355000000000153
20
-23.541253691397159
10
33.355000000000146
20
-36.541253691397159
42
-0.41421356237309243
10
32.855000000000146
20
-37.041253691397152
10
19.855000000000111
20
-37.041253691397117
42
-0.41421356237309631
10
19.355000000000139
20
-36.541253691397152
10
19.355000000000139
20
-23.541253691397159
42
-0.41421356237309631
10
19.855000000000139
20
-23.041253691397159
10
32.855000000000146
20
-23.041253691397156
42
-0.41421356237309243
0
LWPOLYLINE
5
115
100
AcDbEntity
8
0
100
AcDbPolyline
90
8
70
1
43
0.0
10
71.455000000000155
20
-61.641253691397146
10
71.455000000000155
20
-74.641253691397139
42
-0.41421356237311585
10
70.955000000000155
20
-75.141253691397139
10
57.955000000000169
20
-75.141253691397139
42
-0.41421356237311585
10
57.455000000000155
20
-74.641253691397139
10
57.455000000000155
20
-61.641253691397146
42
-0.41421356237311585
10
57.955000000000169
20
-61.141253691397139
10
70.955000000000155
20
-61.141253691397139
42
-0.41421356237311585
0
LWPOLYLINE
5
116
100
AcDbEntity
8
0
100
AcDbPolyline
90
8
70
1
43
0.0
10
90.505000000000166
20
-42.591253691397142
10
90.505000000000166
20
-55.591253691397149
42
-0.41421356237309503
10
90.005000000000166
20
-56.091253691397156
10
77.00500000000018
20
-56.091253691397149
42
-0.41421356237311063
10
76.505000000000166
20
-55.591253691397149
10
76.505000000000194
20
-42.591253691397142
42
-0.4142135623730846
10
77.00500000000018
20
-42.091253691397156
10
90.005000000000166
20
-42.091253691397135
42
-0.41421356237309503
0
LWPOLYLINE
5
117
100
AcDbEntity
8
0
100
AcDbPolyline
90
8
70
1
43
0.0
10
109.55500000000015
20
-23.541253691397152
10
109.55500000000016
20
-36.541253691397145
42
-0.4142135623730846
10
109.05500000000016
20
-37.041253691397145
10
96.055000000000149
20
-37.041253691397152
42
-0.41421356237307422
10
95.555000000000149
20
-36.541253691397145
10
95.555000000000163
20
-23.541253691397152
42
-0.41421356237307422
10
96.055000000000149
20
-23.041253691397152
10
109.05500000000016
20
-23.041253691397156
42
-0.41421356237309764
0
LWPOLYLINE
5
118
100
AcDbEntity
8
0
100
AcDbPolyline
90
8
70
1
43
0.0
10
204.80500000000012
20
-61.641253691397125
10
204.80500000000012
20
-74.641253691397111
42
-0.41421356237313667
10
204.30500000000012
20
-75.141253691397125
10
191.30500000000015
20
-75.141253691397125
42
-0.41421356237313667
10
190.80500000000015
20
-74.641253691397111
10
190.80500000000015
20
-61.641253691397125
42
-0.41421356237313667
10
191.30500000000015
20
-61.141253691397125
10
204.30500000000012
20
-61.141253691397125
42
-0.41421356237313667
0
LWPOLYLINE
5
119
100
AcDbEntity
8
0
100
AcDbPolyline
90
8
70
1
43
0.0
10
223.85500000000013
20
-42.591253691397128
10
223.85500000000013
20
-55.591253691397135
42
-0.41421356237313145
10
223.35500000000013
20
-56.091253691397142
10
210.35500000000016
20
-56.091253691397128
42
-0.41421356237313145
10
209.85500000000016
20
-55.591253691397135
10
209.85500000000016
20
-42.591253691397128
42
-0.41421356237307944
10
210.35500000000016
20
-42.091253691397135
10
223.35500000000013
20
-42.091253691397128
42
-0.41421356237313145
0
LWPOLYLINE
5
120
100
AcDbEntity
8
0
100
AcDbPolyline
90
8
70
1
43
0.0
10
204.80500000000012
20
-23.541253691397142
10
204.80500000000012
20
-36.541253691397138
42
-0.41421356237307944
10
204.30500000000012
20
-37.041253691397131
10
191.30500000000015
20
-37.041253691397138
42
-0.41421356237313406
10
190.80500000000015
20
-36.541253691397138
10
190.80500000000012
20
-23.541253691397142
42
-0.41421356237307683
10
191.30500000000015
20
-23.041253691397145
10
204.30500000000012
20
-23.041253691397145
42
-0.41421356237313145
0
LWPOLYLINE
5
121
100
AcDbEntity
8
0
100
AcDbPolyline
90
8
70
1
43
0.0
10
147.15500000000017
20
-37.041253691397138
10
115.10500000000016
20
-37.041253691397152
42
-0.41421356237307422
10
114.60500000000016
20
-36.541253691397145
10
114.60500000000017
20
-23.541253691397152
42
-0.41421356237307422
10
115.10500000000016
20
-23.041253691397152
10
147.15500000000017
20
-23.041253691397149
42
-0.41421356237307161
10
147.6550000000002
20
-23.541253691397152
10
147.6550000000002
20
-36.541253691397145
42
-0.4142135623730846
0
LWPOLYLINE
5
122
100
AcDbEntity
8
0
100
AcDbPolyline
90
8
70
1
43
0.0
10
242.90500000000014
20
-23.541253691397131
10
242.90500000000014
20
-36.541253691397131
42
-0.41421356237307944
10
242.40500000000014
20
-37.041253691397124
10
229.40500000000017
20
-37.041253691397131
42
-0.41421356237313406
10
228.90500000000017
20
-36.541253691397124
10
228.90500000000014
20
-23.541253691397142
42
-0.41421356237307944
10
229.40500000000017
20
-23.041253691397134
10
242.40500000000014
20
-23.041253691397134
42
-0.41421356237313145
0
LWPOLYLINE
5
123
100
AcDbEntity
8
0
100
AcDbPolyline
90
8
70
1
43
0.0
10
185.75500000000017
20
-42.591253691397128
10
185.75500000000019
20
-55.591253691397135
42
-0.41421356237312101
10
185.25500000000017
20
-56.091253691397142
10
172.25500000000014
20
-56.091253691397078
42
-0.41421356237312101
10
171.75500000000017
20
-55.591253691397135
10
171.75500000000014
20
-42.591253691397128
42
-0.41421356237307944
10
172.25500000000014
20
-42.091253691397135
10
185.25500000000017
20
-42.091253691397142
42
-0.41421356237312101
0
LWPOLYLINE
5
124
100
AcDbEntity
8
0
100
AcDbPolyline
90
8
70
1
43
0.0
10
242.90500000000014
20
-61.641253691397125
10
242.90500000000014
20
-74.641253691397097
42
-0.41421356237313667
10
242.40500000000014
20
-75.141253691397111
10
229.40500000000017
20
-75.141253691397111
42
-0.41421356237313145
10
228.90500000000017
20
-74.641253691397111
10
228.90500000000017
20
-61.641253691397125
42
-0.41421356237313667
10
229.40500000000017
20
-61.141253691397125
10
242.40500000000014
20
-61.141253691397125
42
-0.41421356237313667
0
LWPOLYLINE
5
125
100
AcDbEntity
8
0
100
AcDbPolyline
90
8
70
1
43
0.0
10
166.70500000000015
20
-61.641253691397125
10
166.70500000000018
20
-74.641253691397111
42
-0.41421356237312623
10
166.20500000000015
20
-75.141253691397125
10
134.15500000000017
20
-75.141253691397139
42
-0.41421356237307422
10
133.65500000000017
20
-74.641253691397125
10
133.65500000000017
20
-61.641253691397139
42
-0.41421356237307422
10
134.15500000000017
20
-61.141253691397132
10
166.20500000000015
20
-61.141253691397139
42
-0.41421356237312623
0
LWPOLYLINE
5
126
100
AcDbEntity
8
0
100
AcDbPolyline
90
8
70
1
43
0.0
10
109.55500000000015
20
-61.641253691397139
10
109.55500000000016
20
-74.641253691397125
42
-0.41421356237307422
10
109.05500000000016
20
-75.141253691397139
10
96.055000000000149
20
-75.141253691397139
42
-0.41421356237307422
10
95.555000000000149
20
-74.641253691397125
10
95.555000000000163
20
-61.641253691397146
42
-0.41421356237307944
10
96.055000000000149
20
-61.141253691397139
10
109.05500000000015
20
-61.141253691397139
42
-0.41421356237310025
0
LWPOLYLINE
5
127
100
AcDbEntity
8
0
100
AcDbPolyline
90
8
70
1
43
0.0
10
71.455000000000155
20
-23.541253691397159
10
71.45500000000014
20
-36.541253691397159
42
-0.41421356237309503
10
70.955000000000155
20
-37.041253691397152
10
57.955000000000169
20
-37.041253691397159
42
-0.41421356237310281
10
57.455000000000155
20
-36.541253691397152
10
57.455000000000176
20
-23.541253691397159
42
-0.41421356237309764
10
57.955000000000169
20
-23.041253691397159
10
70.955000000000155
20
-23.041253691397159
42
-0.41421356237310025
0
LWPOLYLINE
5
128
100
AcDbEntity
8
0
100
AcDbPolyline
90
8
70
1
43
0.0
10
52.405000000000172
20
-42.591253691397142
10
52.405000000000179
20
-55.591253691397149
42
-0.41421356237311063
10
51.905000000000157
20
-56.091253691397156
10
38.90500000000015
20
-56.091253691397149
42
-0.41421356237309243
10
38.405000000000157
20
-55.591253691397149
10
38.405000000000165
20
-42.591253691397156
42
-0.41421356237309243
10
38.90500000000015
20
-42.091253691397156
10
51.905000000000157
20
-42.091253691397142
42
-0.41421356237311063
0
LWPOLYLINE
5
129
100
AcDbEntity
8
0
100
AcDbPolyline
90
8
70
1
43
0.0
10
33.355000000000153
20
-61.641253691397146
10
33.355000000000146
20
-74.641253691397139
42
-0.41421356237310281
10
32.855000000000146
20
-75.141253691397139
10
19.855000000000139
20
-75.141253691397111
42
-0.41421356237309631
10
19.355000000000167
20
-74.641253691397139
10
19.355000000000132
20
-61.641253691397146
42
-0.41421356237310542
10
19.855000000000139
20
-61.141253691397139
10
32.855000000000146
20
-61.141253691397139
42
-0.41421356237310281
0
LWPOLYLINE
5
130
100
AcDbEntity
8
0
100
AcDbPolyline
90
8
70
1
43
0.0
10
261.95500000000015
20
-23.541253691397131
10
261.95500000000015
20
-36.541253691397131
42
-0.41421356237307944
10
261.45500000000015
20
-37.041253691397124
10
248.45500000000018
20
-37.041253691397131
42
-0.41421356237313406
10
247.95500000000018
20
-36.541253691397124
10
247.95500000000015
20
-23.541253691397131
42
-0.41421356237307683
10
248.45500000000018
20
-23.041253691397134
10
261.45500000000015
20
-23.041253691397134
42
-0.41421356237313145
0
LWPOLYLINE
5
131
100
AcDbEntity
8
0
100
AcDbPolyline
90
8
70
1
43
0.0
10
210.35500000000016
20
-80.191253691397137
42
0.41421356237309503
10
209.85500000000016
20
-80.691253691397137
10
209.85500000000016
20
-93.691253691397122
42
0.41421356237313667
10
210.35500000000016
20
-94.191253691397151
10
261.45500000000015
20
-94.191253691397137
42
0.41421356237313667
10
261.95500000000015
20
-93.691253691397122
10
261.95500000000015
20
-80.691253691397122
42
0.41421356237313667
10
261.45500000000015
20
-80.191253691397122
0
LWPOLYLINE
5
132
100
AcDbEntity
8
0
100
AcDbPolyline
90
8
70
1
43
0.0
10
71.455000000000155
20
-80.691253691397151
10
71.455000000000169
20
-93.691253691397122
42
-0.41421356237307944
10
70.955000000000155
20
-94.191253691397151
10
19.855000000000143
20
-94.191253691397122
42
-0.41421356237309892
10
19.355000000000167
20
-93.691253691397151
10
19.355000000000128
20
-80.691253691397151
42
-0.41421356237309631
10
19.855000000000139
20
-80.191253691397151
10
70.955000000000155
20
-80.191253691397151
42
-0.41421356237310025
0
LWPOLYLINE
5
133
100
AcDbEntity
8
0
100
AcDbPolyline
90
8
70
1
43
0.0
10
52.405000000000172
20
-23.541253691397159
10
52.40500000000015
20
-36.541253691397159
42
-0.41421356237309503
10
51.905000000000157
20
-37.041253691397152
10
38.90500000000015
20
-37.041253691397145
42
-0.4142135623730846
10
38.405000000000157
20
-36.541253691397152
10
38.40500000000015
20
-23.541253691397159
42
-0.41421356237309503
10
38.90500000000015
20
-23.041253691397159
10
51.905000000000157
20
-23.041253691397159
42
-0.41421356237310025
0
LWPOLYLINE
5
134
100
AcDbEntity
8
0
100
AcDbPolyline
90
8
70
1
43
0.0
10
71.455000000000155
20
-42.591253691397142
10
71.455000000000169
20
-55.591253691397149
42
-0.41421356237311063
10
70.955000000000155
20
-56.091253691397156
10
57.955000000000169
20
-56.091253691397149
42
-0.41421356237311063
10
57.455000000000155
20
-55.591253691397149
10
57.455000000000176
20
-42.591253691397142
42
-0.4142135623730846
10
57.955000000000169
20
-42.091253691397156
10
70.955000000000155
20
-42.091253691397142
42
-0.41421356237311063
0
LWPOLYLINE
5
135
100
AcDbEntity
8
0
100
AcDbPolyline
90
8
70
1
43
0.0
10
90.505000000000166
20
-61.641253691397146
10
90.505000000000166
20
-74.641253691397111
42
-0.41421356237310025
10
90.005000000000166
20
-75.141253691397139
10
77.00500000000018
20
-75.141253691397139
42
-0.41421356237311585
10
76.505000000000166
20
-74.641253691397139
10
76.505000000000166
20
-61.641253691397146
42
-0.41421356237311585
10
77.00500000000018
20
-61.141253691397139
10
90.005000000000166
20
-61.141253691397132
42
-0.41421356237310025
0
LWPOLYLINE
5
136
100
AcDbEntity
8
0
100
AcDbPolyline
90
8
70
1
43
0.0
10
130.98625000000015
20
-61.641253691397139
10
130.98625000000018
20
-74.641253691397125
42
-0.41421356237307422
10
130.48625000000018
20
-75.141253691397139
10
115.10500000000016
20
-75.141253691397139
42
-0.41421356237307422
10
114.60500000000016
20
-74.641253691397125
10
114.60500000000016
20
-61.641253691397139
42
-0.41421356237307422
10
115.10500000000016
20
-61.141253691397132
10
130.48625000000015
20
-61.141253691397154
42
-0.41421356237310025
0
LWPOLYLINE
5
137
100
AcDbEntity
8
0
100
AcDbPolyline
90
8
70
1
43
0.0
10
223.85500000000013
20
-61.641253691397125
10
223.85500000000013
20
-74.641253691397111
42
-0.41421356237313667
10
223.35500000000013
20
-75.141253691397125
10
210.35500000000016
20
-75.141253691397125
42
-0.41421356237313667
10
209.85500000000016
20
-74.641253691397111
10
209.85500000000016
20
-61.641253691397125
42
-0.41421356237313667
10
210.35500000000016
20
-61.141253691397125
10
223.35500000000013
20
-61.141253691397125
42
-0.41421356237313667
0
LWPOLYLINE
5
138
100
AcDbEntity
8
0
100
AcDbPolyline
90
8
70
1
43
0.0
10
204.80500000000012
20
-42.591253691397128
10
204.80500000000012
20
-55.591253691397135
42
-0.41421356237313145
10
204.30500000000012
20
-56.091253691397142
10
191.30500000000015
20
-56.091253691397128
42
-0.41421356237313145
10
190.80500000000015
20
-55.591253691397135
10
190.80500000000015
20
-42.591253691397128
42
-0.41421356237307944
10
191.30500000000015
20
-42.091253691397135
10
204.30500000000012
20
-42.091253691397128
42
-0.41421356237313145
0
LWPOLYLINE
5
139
100
AcDbEntity
8
0
100
AcDbPolyline
90
8
70
1
43
0.0
10
223.85500000000013
20
-23.541253691397142
10
223.85500000000013
20
-36.541253691397131
42
-0.41421356237313145
10
223.35500000000013
20
-37.041253691397131
10
210.35500000000016
20
-37.041253691397138
42
-0.41421356237313406
10
209.85500000000016
20
-36.541253691397138
10
209.85500000000013
20
-23.541253691397142
42
-0.41421356237307683
10
210.35500000000016
20
-23.041253691397145
10
223.35500000000013
20
-23.041253691397145
42
-0.41421356237313145
0
LWPOLYLINE
5
140
100
AcDbEntity
8
0
100
AcDbPolyline
90
72
70
1
43
0.0
10
27.380000000000155
20
-16.991253691396796
42
0.41421356237309681
10
25.880000000000155
20
-18.491253691396796
10
25.880000000000152
20
-20.541253691397063
42
-0.41421356237309503
10
25.380000000000152
20
-21.04125369139706
10
19.454999999999998
20
-21.041253691397056
42
0.41421333333335475
10
17.355000000001009
20
-23.141253691397058
10
17.355
20
-94.091253691397029
42
0.41421333333195592
10
19.455000000000005
20
-96.191253691388013
10
25.380000000000162
20
-96.191253691388113
42
-0.4142135623730846
10
25.880000000000145
20
-96.691253691388113
10
25.880000000000152
20
-98.741253691388266
42
0.41421356237308982
10
27.380000000000152
20
-100.24125369138827
10
44.380000000000152
20
-100.24125369138828
42
0.41421356237308815
10
45.880000000000152
20
-98.741253691388266
10
45.880000000000152
20
-96.691253691388894
42
-0.41421356237310542
10
46.38000000000018
20
-96.19125369138888
10
101.58000000000018
20
-96.191253691390983
42
-0.4142135623730846
10
102.08000000000018
20
-96.691253691390983
10
102.08000000000015
20
-98.74125369139108
42
0.41421356237309853
10
103.58000000000017
20
-100.24125369139111
10
120.58000000000018
20
-100.24125369139111
42
0.41421356237308815
10
122.08000000000018
20
-98.741253691391108
10
122.08000000000015
20
-96.691253691391793
42
-0.41421356237309503
10
122.58000000000017
20
-96.191253691391779
10
158.73000000000016
20
-96.191253691393172
42
-0.41421356237309503
10
159.23000000000016
20
-96.691253691393172
10
159.23000000000016
20
-98.741253691393993
42
0.41421356237308116
10
160.73000000000013
20
-100.24125369139399
10
177.73000000000019
20
-100.24125369139398
42
0.41421356237310197
10
179.23000000000016
20
-98.741253691393979
10
179.23000000000016
20
-96.691253691393953
42
-0.41421356237311585
10
179.73000000000019
20
-96.191253691393953
10
234.93000000000021
20
-96.191253691396028
42
-0.41421356237307422
10
235.43000000000018
20
-96.691253691396042
10
235.43000000000018
20
-98.741253691396835
42
0.41421356237311935
10
236.93000000000015
20
-100.24125369139681
10
253.93000000000018
20
-100.24125369139681
42
0.41421356237312279
10
255.43000000000018
20
-98.741253691396821
10
255.43000000000018
20
-96.691253691396838
42
-0.41421356237311585
10
255.93000000000021
20
-96.191253691396824
10
261.85500000000002
20
-96.191253691397065
42
0.41422285714083018
10
263.95500000000004
20
-94.091253691397029
10
263.95499999999998
20
-23.141253691397061
42
0.41419047618995875
10
261.85500000000002
20
-21.041253691387102
10
255.93000000000018
20
-21.04125369139707
42
-0.41421356237309503
10
255.43000000000018
20
-20.541253691397063
10
255.43000000000018
20
-18.491253691388188
42
0.41421356237312196
10
253.93000000000018
20
-16.991253691388206
10
236.93000000000015
20
-16.991253691388188
42
0.41421356237311369
10
235.43000000000018
20
-18.491253691388184
10
235.43000000000018
20
-20.54125369139706
42
-0.41421356237309503
10
234.93000000000018
20
-21.041253691397056
10
179.73000000000013
20
-21.041253691397067
42
-0.41421356237309503
10
179.23000000000013
20
-20.54125369139706
10
179.23000000000016
20
-18.491253691390494
42
0.41421356237310025
10
177.73000000000019
20
-16.991253691390483
10
160.73000000000013
20
-16.991253691390497
42
0.41421356237309337
10
159.23000000000013
20
-18.491253691390494
10
159.23000000000016
20
-20.54125369139706
42
-0.41421356237309503
10
158.73000000000016
20
-21.041253691397056
10
122.58000000000017
20
-21.041253691397067
42
-0.41421356237309243
10
122.08000000000015
20
-20.541253691397063
10
122.08000000000015
20
-18.491253691393666
42
0.41421356237309465
10
120.58000000000015
20
-16.991253691393663
10
103.58000000000015
20
-16.991253691393663
42
0.41421356237308943
10
102.08000000000014
20
-18.491253691393666
10
102.08000000000015
20
-20.54125369139706
42
-0.41421356237309503
10
101.58000000000015
20
-21.041253691397056
10
46.380000000000152
20
-21.041253691397056
42
-0.41421356237309503
10
45.880000000000152
20
-20.54125369139706
10
45.880000000000152
20
-18.491253691396796
42
0.4142135623730942
10
44.380000000000152
20
-16.991253691396796
0
ENDSEC
0
SECTION
2
OBJECTS
0
DICTIONARY
5
C
100
AcDbDictionary
3
ACAD_GROUP
350
D
3
ACAD_MLINESTYLE
350
17
0
DICTIONARY
5
D
100
AcDbDictionary
0
DICTIONARY
5
1A
330
C
100
AcDbDictionary
0
DICTIONARY
5
17
100
AcDbDictionary
0
ENDSEC
0
EOF
